<svg xmlns="http://www.w3.org/2000/svg" viewBox="0 0 39 39" width="200">
  <path d="M1 1h7v7h-7zM9 1h4v1h-1v1h1v-1h1v2h1v1h1v1h1v-1h1v3h-1v-1h-1v1h-1v-2h-1v-1h-2v1h-2v-2h1v-2h-1v2h-1zM16 1h4v1h-2v1h-1v-1h-1zM21 1h2v2h2v1h-2v1h-2v-1h-3v-1h4v-1h-1zM29 1h1v2h-1v2h-1v-1h-1v-2h2zM31 1h7v7h-7zM2 2v5h5v-5zM15 2h1v2h-1zM25 2h1v1h-1zM32 2v5h5v-5zM3 3h3v3h-3zM33 3h3v3h-3zM26 4h1v1h-1zM23 5h1v1h1v1h-1v1h1v-1h1v2h-1v1h1v1h-1v1h1v1h-1v1h1v1h-1v1h1v1h-1v1h-1v-1h-1v-2h1v-2h-1v2h-1v1h-1v-2h-1v-2h1v-1h-1v-1h1v-3h-1v-1h3zM25 5h1v1h-1zM27 5h1v1h-1zM29 5h1v4h3v1h-2v1h1v1h1v1h1v1h-4v-4h-2v-2h1v-1h-1v-1h1zM9 6h1v2h1v-1h1v2h-2v1h3v1h-1v1h-1v-1h-2zM12 6h2v2h1v1h-1v1h-1v-3h-1zM26 6h1v1h-1zM19 7h1v1h-1zM22 7v1h1v-1zM27 7h1v1h-1zM16 8h1v1h-1zM3 9h3v3h-2v-1h1v-1h-2zM7 9h1v1h-1zM15 9h1v1h-1zM17 9h1v1h-1zM23 9v1h1v-1zM26 9h1v1h-1zM35 9h3v1h-1v1h-1v-1h-1zM14 10h1v1h-1zM16 10h1v4h1v-3h2v1h-1v3h-1v3h-2v-1h1v-1h-1v-3h-4v-1h1v-1h1v1h2zM27 10h1v1h-1zM34 10h1v1h-1zM2 11h1v1h-1zM7 11h2v1h-2zM28 11h1v1h-1zM35 11h1v1h-1zM37 11h1v1h-1zM3 12h1v1h-1zM10 12h1v1h-1zM27 12h1v1h-1zM34 12h1v1h-1zM1 13h2v1h-1v1h-1zM4 13h1v1h-1zM7 13h1v1h-1zM9 13h1v2h1v-1h2v1h-1v3h-1v1h1v3h1v-1h1v3h-1v-1h-1v4h-2v1h2v-1h2v-1h4v3h-2v-1h-1v1h-1v-1h-1v1h-4v-2h-1v-1h3v-1h-3v-1h-1v-1h1v-1h2v1h1v-2h-1v-1h-3v-1h2v-1h1v-2h-3v1h-2v-1h1v-1h3zM26 13h1v1h-1zM28 13h1v1h-1zM35 13h1v1h-1zM37 13h1v1h-1zM27 14h1v1h-1zM29 14h1v1h-1zM34 14h1v2h-3v1h2v1h-6v-1h3v-2h3zM36 14h1v1h-1zM3 15h1v1h-1zM14 15h1v1h1v1h-1v1h-2v-1h1zM19 15h1v1h-1zM26 15h1v1h-1zM28 15h1v1h-1zM37 15h1v1h-1zM1 16h2v1h-1v4h-1zM27 16h1v1h-1zM3 17h2v1h2v1h-2v1h-2zM7 17h1v1h-1zM19 17h1v1h-1zM22 17h1v1h1v2h1v-1h1v2h-3v-2h-1zM26 17h1v1h-1zM35 17h1v1h-1zM37 17h1v1h-1zM15 18h1v1h-1zM18 18h1v2h-1v3h1v1h1v1h1v1h-3v-2h-1v1h-1v-1h-1v-3h-1v-2h1v1h1v3h1v-3h-1v-1h2zM27 18h1v1h2v1h-2v1h-1zM36 18h1v1h-1zM20 19h1v1h-1zM31 19h1v1h1v1h1v1h-3v-1h-1v-1h1zM34 19h2v1h-1v1h-1zM37 19h1v1h-1zM6 20h1v1h1v1h-1v1h-1v-1h-1v-1h1zM19 20h1v1h-1zM21 20h1v1h-1zM3 21h1v1h-1zM22 21h1v1h1v2h-1v-1h-1zM26 21h1v1h1v1h-2zM28 21h1v1h-1zM35 21h1v1h-1zM4 22h1v4h-1v-2h-1v-1h1zM19 22h2v2h-1v-1h-1zM29 22h2v1h-1v1h-1v2h-1v-3h1zM36 22h1v1h-1zM1 23h1v2h1v1h1v2h2v2h-2v-1h-1v-2h-1v3h-1zM31 23h1v3h-2v-1h1zM33 23h3v1h-1v1h-1v-1h-1zM37 23h1v1h-1zM21 24h2v1h1v1h-1v1h1v3h-2v-1h1v-1h-2v1h-1v-1h-1v-1h2v-1h1v-1h-1zM25 24h1v1h-1zM7 25h1v1h-1zM33 25h1v1h-1zM35 25h1v1h1v1h-3v-1h1zM37 25h1v1h-1zM5 26h2v1h1v1h-2v-1h-1zM25 26h2v1h-2zM29 26h1v2h1v-1h1v1h1v1h1v1h1v-1h1v2h-1v1h-1v1h2v1h-1v1h-2v-1h-1v1h-3v-1h-1v-1h1v-2h-2v-1h1v-3h1zM32 26h1v1h-1zM33 27h1v1h-1zM37 27h1v3h-1zM25 28h1v1h1v1h-2zM34 28h1v1h-1zM7 29h1v1h-1zM13 29h1v1h1v-1h1v1h2v2h-1v1h-1v1h-2v-3h-1zM9 30h1v1h-1zM11 30h1v2h-1v1h-1v-2h1zM20 30h1v1h1v1h-1v1h-1zM24 30h1v1h-1zM30 30v3h3v-3zM1 31h7v7h-7zM15 31v1h1v-1zM25 31h1v1h-1zM31 31h1v1h-1zM36 31h2v2h-1v-1h-1zM2 32v5h5v-5zM22 32h1v1h1v2h-1v2h-1v-2h-1v1h-1v-1h-3v-2h1v1h1v-1h1v1h1v-1h1zM3 33h3v3h-3zM9 33h1v1h2v1h-1v2h-1v-1h-1zM12 33h1v1h-1zM25 33h2v1h-2zM13 34h1v1h1v1h-2zM27 34h1v1h1v1h3v1h1v1h-2v-1h-3v1h-5v-1h1v-2h2v1h-1v1h2zM32 35h1v1h-1zM35 35h1v1h-1zM37 35h1v3h-3v-1h2zM15 36h3v2h-2v-1h-1zM19 36h1v2h-1zM33 36h2v1h-2zM14 37h1v1h-1z"></path>
</svg>